<?xml version="1.0" standalone="no"?>
<!DOCTYPE svg PUBLIC "-//W3C//DTD SVG 20010904//EN"
 "http://www.w3.org/TR/2001/REC-SVG-20010904/DTD/svg10.dtd">
<svg version="1.0" xmlns="http://www.w3.org/2000/svg"
 width="450.000000pt" height="450.000000pt" viewBox="0 0 450.000000 450.000000"
 preserveAspectRatio="xMidYMid meet">
<metadata>
Created by potrace 1.14, written by Peter Selinger 2001-2017
</metadata>
<g transform="translate(0.000000,450.000000) scale(0.100000,-0.100000)"
fill="#000000" stroke="none">
<path d="M2089 4495 c-2 -1 -42 -6 -89 -10 -47 -3 -92 -8 -100 -10 -8 -2 -31
-7 -50 -10 -30 -5 -83 -17 -140 -30 -304 -73 -652 -250 -895 -455 -456 -384
-725 -880 -799 -1470 -13 -103 -14 -467 -2 -520 3 -14 8 -43 10 -65 30 -270
176 -655 344 -906 164 -242 371 -458 577 -600 28 -19 52 -37 55 -40 10 -12
159 -98 238 -138 235 -118 528 -205 767 -228 105 -10 389 -10 490 0 234 23
510 104 743 219 501 245 897 671 1100 1183 76 192 133 420 149 595 10 107 10
381 0 480 -57 568 -353 1118 -802 1491 -330 273 -763 460 -1170 504 -65 7
-421 16 -426 10z"/>
</g>
</svg>
